HIERARCHY
ROOT Hips
{
	OFFSET 0.000000 97.167313 0.000000
	CHANNELS 6 Xposition Yposition Zposition Xrotation Yrotation Zrotation
	JOINT Spine
	{
		OFFSET 0.000000 13.784798 0.064400
		CHANNELS 3 Xrotation Yrotation Zrotation
		JOINT Spine1
		{
			OFFSET 0.000000 12.037903 0.404700
			CHANNELS 3 Xrotation Yrotation Zrotation
			JOINT Spine2
			{
				OFFSET 0.000000 17.795601 0.420200
				CHANNELS 3 Xrotation Yrotation Zrotation
				JOINT Neck
				{
					OFFSET 0.000000 39.131302 11.954600
					CHANNELS 3 Xrotation Yrotation Zrotation
					JOINT Head
					{
						OFFSET 0.000000 14.456192 15.627699
						CHANNELS 3 Xrotation Yrotation Zrotation
						JOINT HeadTop_End
						{
							OFFSET 0.000000 15.703506 7.603401
							CHANNELS 3 Xrotation Yrotation Zrotation
							End Site
							{
								OFFSET 0.000000 17.447403 0.000000
							}
						}
					}
				}
				JOINT LeftShoulder
				{
					OFFSET 17.399500 24.608795 1.168800
					CHANNELS 3 Xrotation Yrotation Zrotation
					JOINT LeftArm
					{
						OFFSET 18.980635 5.765305 1.818600
						CHANNELS 3 Xrotation Yrotation Zrotation
						JOINT LeftForeArm
						{
							OFFSET 49.290169 0.000000 0.000000
							CHANNELS 3 Xrotation Yrotation Zrotation
							JOINT LeftHand
							{
								OFFSET 31.562012 0.000000 0.000000
								CHANNELS 3 Xrotation Yrotation Zrotation
								JOINT LeftHandThumb1
								{
									OFFSET 6.133995 -4.388519 7.076070
									CHANNELS 3 Xrotation Yrotation Zrotation
									JOINT LeftHandThumb2
									{
										OFFSET 6.037666 -3.485840 3.485847
										CHANNELS 3 Xrotation Yrotation Zrotation
										JOINT LeftHandThumb3
										{
											OFFSET 6.496506 -3.750763 3.750761
											CHANNELS 3 Xrotation Yrotation Zrotation
											JOINT LeftHandThumb4
											{
												OFFSET 5.616882 -3.242905 3.242910
												CHANNELS 3 Xrotation Yrotation Zrotation
												End Site
												{
													OFFSET -1.254608 7.132141 0.375429
												}
											}
										}
									}
								}
								JOINT LeftHandPinky1
								{
									OFFSET 18.920792 -0.453171 -11.426712
									CHANNELS 3 Xrotation Yrotation Zrotation
									JOINT LeftHandPinky2
									{
										OFFSET 4.919586 0.000000 0.000000
										CHANNELS 3 Xrotation Yrotation Zrotation
										JOINT LeftHandPinky3
										{
											OFFSET 5.233047 0.000000 0.000000
											CHANNELS 3 Xrotation Yrotation Zrotation
											JOINT LeftHandPinky4
											{
												OFFSET 5.571716 0.000000 0.000000
												CHANNELS 3 Xrotation Yrotation Zrotation
												End Site
												{
													OFFSET -3.459808 4.342407 -0.466164
												}
											}
										}
									}
								}
								JOINT LeftHandRing1
								{
									OFFSET 22.726120 -0.094986 -6.500475
									CHANNELS 3 Xrotation Yrotation Zrotation
									JOINT LeftHandRing2
									{
										OFFSET 6.408615 0.000000 0.000000
										CHANNELS 3 Xrotation Yrotation Zrotation
										JOINT LeftHandRing3
										{
											OFFSET 6.150223 0.000000 0.000000
											CHANNELS 3 Xrotation Yrotation Zrotation
											JOINT LeftHandRing4
											{
												OFFSET 6.145386 0.000000 0.000000
												CHANNELS 3 Xrotation Yrotation Zrotation
												End Site
												{
													OFFSET -3.671402 4.923981 -0.202372
												}
											}
										}
									}
								}
								JOINT LeftHandMiddle1
								{
									OFFSET 23.373947 0.000000 0.000001
									CHANNELS 3 Xrotation Yrotation Zrotation
									JOINT LeftHandMiddle2
									{
										OFFSET 6.996567 0.000000 0.000000
										CHANNELS 3 Xrotation Yrotation Zrotation
										JOINT LeftHandMiddle3
										{
											OFFSET 7.015945 0.000000 0.000000
											CHANNELS 3 Xrotation Yrotation Zrotation
											JOINT LeftHandMiddle4
											{
												OFFSET 7.721573 0.000000 0.000000
												CHANNELS 3 Xrotation Yrotation Zrotation
												End Site
												{
													OFFSET -4.651108 6.158463 0.251582
												}
											}
										}
									}
								}
								JOINT LeftHandIndex1
								{
									OFFSET 21.310577 -0.490082 6.209344
									CHANNELS 3 Xrotation Yrotation Zrotation
									JOINT LeftHandIndex2
									{
										OFFSET 7.536453 0.000000 0.000000
										CHANNELS 3 Xrotation Yrotation Zrotation
										JOINT LeftHandIndex3
										{
											OFFSET 7.512344 0.000000 0.000000
											CHANNELS 3 Xrotation Yrotation Zrotation
											JOINT LeftHandIndex4
											{
												OFFSET 10.212402 0.000000 0.000001
												CHANNELS 3 Xrotation Yrotation Zrotation
												End Site
												{
													OFFSET -5.180801 8.690506 1.388433
												}
											}
										}
									}
								}
							}
						}
					}
				}
				JOINT RightShoulder
				{
					OFFSET -17.399500 24.608795 1.168800
					CHANNELS 3 Xrotation Yrotation Zrotation
					JOINT RightArm
					{
						OFFSET -18.980635 5.765305 1.818600
						CHANNELS 3 Xrotation Yrotation Zrotation
						JOINT RightForeArm
						{
							OFFSET -49.290169 0.000000 0.000000
							CHANNELS 3 Xrotation Yrotation Zrotation
							JOINT RightHand
							{
								OFFSET -31.562012 0.000000 0.000000
								CHANNELS 3 Xrotation Yrotation Zrotation
								JOINT RightHandThumb1
								{
									OFFSET -6.133995 -4.388519 7.076070
									CHANNELS 3 Xrotation Yrotation Zrotation
									JOINT RightHandThumb2
									{
										OFFSET -6.037666 -3.485840 3.485847
										CHANNELS 3 Xrotation Yrotation Zrotation
										JOINT RightHandThumb3
										{
											OFFSET -6.496506 -3.750763 3.750761
											CHANNELS 3 Xrotation Yrotation Zrotation
											JOINT RightHandThumb4
											{
												OFFSET -5.616882 -3.242905 3.242910
												CHANNELS 3 Xrotation Yrotation Zrotation
												End Site
												{
													OFFSET 1.254608 7.132141 0.375429
												}
											}
										}
									}
								}
								JOINT RightHandIndex1
								{
									OFFSET -21.310577 -0.490082 6.209344
									CHANNELS 3 Xrotation Yrotation Zrotation
									JOINT RightHandIndex2
									{
										OFFSET -7.536453 0.000000 0.000000
										CHANNELS 3 Xrotation Yrotation Zrotation
										JOINT RightHandIndex3
										{
											OFFSET -7.512344 0.000000 0.000000
											CHANNELS 3 Xrotation Yrotation Zrotation
											JOINT RightHandIndex4
											{
												OFFSET -10.212402 0.000000 0.000001
												CHANNELS 3 Xrotation Yrotation Zrotation
												End Site
												{
													OFFSET 5.180801 8.690506 1.388433
												}
											}
										}
									}
								}
								JOINT RightHandMiddle1
								{
									OFFSET -23.373947 0.000000 0.000001
									CHANNELS 3 Xrotation Yrotation Zrotation
									JOINT RightHandMiddle2
									{
										OFFSET -6.996567 0.000000 0.000000
										CHANNELS 3 Xrotation Yrotation Zrotation
										JOINT RightHandMiddle3
										{
											OFFSET -7.015945 0.000000 0.000000
											CHANNELS 3 Xrotation Yrotation Zrotation
											JOINT RightHandMiddle4
											{
												OFFSET -7.721573 0.000000 0.000000
												CHANNELS 3 Xrotation Yrotation Zrotation
												End Site
												{
													OFFSET 4.651108 6.158463 0.251582
												}
											}
										}
									}
								}
								JOINT RightHandRing1
								{
									OFFSET -22.726120 -0.094986 -6.500475
									CHANNELS 3 Xrotation Yrotation Zrotation
									JOINT RightHandRing2
									{
										OFFSET -6.408615 0.000000 0.000000
										CHANNELS 3 Xrotation Yrotation Zrotation
										JOINT RightHandRing3
										{
											OFFSET -6.150223 0.000000 0.000000
											CHANNELS 3 Xrotation Yrotation Zrotation
											JOINT RightHandRing4
											{
												OFFSET -6.145386 0.000000 0.000000
												CHANNELS 3 Xrotation Yrotation Zrotation
												End Site
												{
													OFFSET 3.671402 4.923981 -0.202372
												}
											}
										}
									}
								}
								JOINT RightHandPinky1
								{
									OFFSET -18.920792 -0.453171 -11.426712
									CHANNELS 3 Xrotation Yrotation Zrotation
									JOINT RightHandPinky2
									{
										OFFSET -4.919586 0.000000 0.000000
										CHANNELS 3 Xrotation Yrotation Zrotation
										JOINT RightHandPinky3
										{
											OFFSET -5.233047 0.000000 0.000000
											CHANNELS 3 Xrotation Yrotation Zrotation
											JOINT RightHandPinky4
											{
												OFFSET -5.571716 0.000000 0.000000
												CHANNELS 3 Xrotation Yrotation Zrotation
												End Site
												{
													OFFSET 3.459808 4.342407 -0.466164
												}
											}
										}
									}
								}
							}
						}
					}
				}
			}
		}
	}
	JOINT LeftUpLeg
	{
		OFFSET 19.899099 -7.885101 -3.429500
		CHANNELS 3 Xrotation Yrotation Zrotation
		JOINT LeftLeg
		{
			OFFSET 1.745560 -36.997807 10.304700
			CHANNELS 3 Xrotation Yrotation Zrotation
			JOINT LeftFoot
			{
				OFFSET -1.745558 -29.803308 -13.615400
				CHANNELS 3 Xrotation Yrotation Zrotation
				JOINT LeftToeBase
				{
					OFFSET 1.181900 -18.539904 15.226099
					CHANNELS 3 Xrotation Yrotation Zrotation
					JOINT LeftToe_End
					{
						OFFSET -0.863701 1.402801 16.534700
						CHANNELS 3 Xrotation Yrotation Zrotation
						End Site
						{
							OFFSET 0.000000 16.616566 0.000000
						}
					}
				}
			}
		}
	}
	JOINT RightUpLeg
	{
		OFFSET -19.899099 -7.885101 -3.429500
		CHANNELS 3 Xrotation Yrotation Zrotation
		JOINT RightLeg
		{
			OFFSET -1.745560 -36.997807 10.304700
			CHANNELS 3 Xrotation Yrotation Zrotation
			JOINT RightFoot
			{
				OFFSET 1.745558 -29.803308 -13.615400
				CHANNELS 3 Xrotation Yrotation Zrotation
				JOINT RightToeBase
				{
					OFFSET -1.181900 -18.539904 15.226099
					CHANNELS 3 Xrotation Yrotation Zrotation
					JOINT RightToe_End
					{
						OFFSET 0.863701 1.402801 16.534700
						CHANNELS 3 Xrotation Yrotation Zrotation
						End Site
						{
							OFFSET 0.000000 16.616566 0.000000
						}
					}
				}
			}
		}
	}
}
MOTION
Frames: 4
Frame Time: 0.033333
1.514654 194.401337 -19.581524 24.397658 -8.470905 -5.781262 -1.487683 -1.674333 4.867743 -3.506685 1.721734 2.210467 -3.516411 1.683112 2.224225 1.536730 0.289144 -0.259548 11.039765 5.890109 -9.907204 0.000000 0.000000 -0.000000 3.067718 -37.730313 16.067212 -51.808730 -50.018285 24.571474 0.004755 -38.708424 0.003122 -91.986092 27.325794 1.565629 -5.777345 -8.153152 -12.893521 83.835955 73.929599 -76.655186 -9.456674 29.026733 33.438359 -0.000001 0.000008 0.000001 5.856797 8.196104 -89.713005 6.189833 5.841990 -93.431469 5.477239 5.841205 -86.356575 -0.000001 -0.000000 -0.000001 6.039417 8.209438 -94.539893 5.463616 5.833283 -86.332444 5.469665 5.852255 -86.342313 -0.000001 0.000001 0.000005 5.987623 8.216490 -94.565397 5.483865 5.844723 -86.332594 5.477416 5.849058 -86.342259 0.000003 -0.000001 0.000004 5.889999 8.191543 -89.714125 5.484416 5.834459 -86.335360 5.487444 5.842624 -86.335312 0.000000 0.000001 -0.000001 23.818803 26.853702 -34.392263 -87.970658 40.798298 10.886992 0.000500 51.410376 0.000284 -74.494517 -15.039948 16.069914 -7.214357 10.182409 13.568210 89.796156 -74.677942 83.179034 -9.870961 -35.461225 -34.944470 0.000000 -0.000001 0.000002 4.623760 -6.930874 88.952975 4.360705 -4.653602 86.342423 4.352648 -4.653872 86.342231 0.000001 -0.000001 -0.000001 4.593240 -6.943509 88.951275 4.358418 -4.639218 86.340032 4.363754 -4.638905 86.349184 -0.000001 0.000002 -0.000001 4.595225 -6.922790 88.951883 4.357328 -4.642036 86.340066 4.363915 -4.637955 86.349287 0.000000 0.000000 -0.000005 4.593265 -6.930345 88.951821 4.355927 -4.650532 86.340039 4.352064 -4.652084 86.349007 -0.000001 0.000000 -0.000003 -3.156831 12.215505 20.834681 54.485980 -6.149452 -2.054557 37.834911 -8.833501 -31.772742 -9.551290 0.071364 0.017365 -0.000001 0.000000 0.000001 14.211142 -7.445348 -20.311075 79.724359 -1.130039 -5.396926 29.557797 -3.866579 8.417181 -14.924810 -0.000045 -0.000011 -0.000000 0.000000 0.000002 
1.051044 183.360168 -7.994499 22.132424 -7.809386 -5.329198 -2.001546 -1.980354 4.621065 -4.550765 1.561338 2.252377 -4.559095 1.514977 2.265299 1.408786 0.338584 -0.208357 11.765750 6.728567 -9.628476 -0.000001 0.000000 -0.000000 3.042138 -36.860718 15.796348 -55.268477 -48.810065 19.525940 0.004897 -42.416732 0.003334 -92.767506 25.745329 5.527953 -5.765773 -8.142671 -12.952744 84.274549 73.959535 -77.055995 -9.441440 29.094687 33.536283 0.000001 0.000001 0.000002 5.884894 8.197105 -89.993609 6.216016 5.839794 -93.682567 5.508305 5.844083 -86.672239 -0.000003 -0.000003 0.000001 6.062391 8.207989 -94.760679 5.489671 5.835371 -86.583494 5.502704 5.852425 -86.658025 -0.000001 -0.000002 -0.000000 6.018874 8.215724 -94.861274 5.509120 5.844507 -86.583651 5.509130 5.848758 -86.657970 -0.000000 -0.000002 0.000004 5.937356 8.193751 -90.025322 5.508638 5.839777 -86.586561 5.517882 5.849260 -86.650614 -0.000002 0.000001 0.000001 22.889697 27.486367 -33.143305 -90.132440 39.559892 16.136252 0.000159 52.365189 0.000627 -69.091223 -16.493280 17.306637 -7.355036 10.232329 13.440315 89.925007 -73.944024 82.086518 -9.340099 -35.236130 -34.392369 -0.000000 -0.000006 0.000001 4.362654 -6.922135 87.893770 4.314976 -4.641152 85.738060 4.264618 -4.644274 85.161271 -0.000002 -0.000002 0.000004 4.384640 -6.927220 87.861880 4.310095 -4.640215 85.735335 4.267324 -4.640378 85.141341 -0.000003 0.000002 -0.000004 4.387074 -6.919556 87.862187 4.307171 -4.637076 85.735348 4.262621 -4.637698 85.141436 -0.000005 0.000001 -0.000003 4.328476 -7.107701 87.892773 4.308728 -4.645427 85.735567 4.261110 -4.640839 85.170936 0.000001 -0.000001 -0.000001 2.030202 12.845737 22.725648 52.884287 5.255977 -2.711563 44.172831 -6.689401 -23.772233 -9.526673 0.064264 0.013964 -0.000000 -0.000001 0.000000 14.801370 -12.347574 -22.096485 76.757454 -3.370304 -6.730287 32.855952 -6.688475 7.214179 -10.532564 -0.000036 0.000045 0.000003 0.000000 0.000000 
0.307873 173.120285 2.740807 19.222960 -7.691726 -4.712504 -2.226323 -1.801832 3.938575 -4.987316 1.183361 2.097005 -4.993029 1.137934 2.107152 1.316929 0.389793 -0.133544 12.737522 7.723489 -9.362778 0.000001 0.000000 -0.000000 3.036420 -36.026598 15.542490 -58.357478 -47.280629 14.525919 0.004827 -45.829296 0.003302 -93.284668 23.293088 8.335621 -5.736475 -8.119588 -13.089731 85.326398 74.012066 -78.016647 -9.376718 29.281506 33.722447 0.000001 0.000004 0.000004 5.962679 8.198824 -90.767600 6.277516 5.835020 -94.270291 5.581479 5.849777 -87.411156 -0.000002 0.000000 -0.000002 6.116202 8.205508 -95.277608 5.550718 5.839849 -87.171198 5.580004 5.852169 -87.397113 -0.000001 -0.000002 -0.000000 6.092341 8.213020 -95.554019 5.568211 5.843591 -87.171355 5.585631 5.847460 -87.397031 -0.000001 0.000000 0.000002 6.041851 8.195439 -90.753885 5.565395 5.847377 -87.174517 5.588542 5.854358 -87.388739 -0.000003 0.000001 -0.000001 21.937126 28.097660 -31.872169 -91.079159 37.836806 20.268419 -0.000617 54.181872 0.001442 -63.621156 -17.775238 17.022891 -7.470296 10.266390 13.330314 89.908929 -73.373423 81.051553 -8.900581 -35.033273 -33.940921 -0.000001 -0.000005 0.000002 4.146044 -6.908730 86.999610 4.273610 -4.636682 85.186905 4.183985 -4.634799 84.165402 -0.000002 -0.000002 0.000004 4.205875 -6.911624 86.943807 4.266073 -4.640684 85.183954 4.185463 -4.632598 84.124640 -0.000005 0.000000 -0.000001 4.208660 -6.911770 86.943916 4.261479 -4.632096 85.184036 4.177925 -4.635406 84.124633 -0.000004 0.000002 -0.000005 4.101299 -7.250464 86.997526 4.265988 -4.640159 85.184432 4.185335 -4.629690 84.177136 -0.000003 -0.000003 0.000000 4.301525 13.024342 21.561329 52.259922 6.408384 -2.276836 45.582763 -4.534208 -17.978036 -7.154663 0.056918 0.005378 -0.000002 0.000001 0.000001 14.992347 -14.797210 -24.386764 74.689287 -4.350765 -6.907329 39.336296 -6.963076 12.843524 -7.493550 -0.000000 0.000024 -0.000001 0.000002 -0.000003 
-0.605043 163.211136 12.821184 16.028530 -8.312294 -3.945717 -2.180405 -1.069008 2.703053 -4.861476 0.720555 1.757815 -4.864565 0.683453 1.764430 1.228971 0.443388 -0.046681 13.816390 8.826192 -9.110181 0.000003 0.000000 -0.000000 3.049077 -35.227080 15.305132 -60.968632 -45.912764 9.665490 0.004831 -48.564120 0.003326 -93.104050 20.564701 10.060782 -5.689501 -8.084749 -13.301799 86.981557 74.074870 -79.528093 -9.256772 29.586457 33.988121 0.000002 0.000001 0.000000 6.080937 8.198619 -91.937256 6.373523 5.827891 -95.183624 5.695975 5.855890 -88.559659 -0.000001 -0.000001 -0.000002 6.199713 8.202401 -96.081091 5.645620 5.845595 -88.084606 5.700166 5.849837 -88.545753 0.000002 0.000004 0.000000 6.207127 8.206506 -96.630723 5.660579 5.847454 -88.084797 5.703721 5.847605 -88.545630 0.000004 0.000002 0.000006 6.200620 8.190531 -91.886200 5.656163 5.852216 -88.088451 5.702320 5.859634 -88.536122 -0.000003 0.000005 0.000002 20.959026 28.675764 -30.587622 -90.942336 35.612938 23.391467 -0.001089 57.011893 0.001946 -58.871033 -19.114091 15.530892 -7.547934 10.287774 13.237385 89.749526 -73.002619 80.143999 -8.574047 -34.864902 -33.614469 0.000000 0.000000 -0.000000 3.991163 -6.895292 86.305779 4.238276 -4.630666 84.715779 4.122676 -4.626119 83.393324 -0.000001 -0.000003 -0.000002 4.067174 -6.899759 86.232497 4.228366 -4.639910 84.712569 4.121823 -4.626801 83.337993 0.000001 0.000000 -0.000004 4.070460 -6.899929 86.232586 4.222393 -4.627489 84.712664 4.112824 -4.631624 83.337952 -0.000003 0.000001 -0.000003 3.928111 -7.352169 86.301660 4.229656 -4.635086 84.713101 4.125845 -4.620189 83.406083 0.000003 -0.000001 0.000004 4.649217 12.619850 19.133330 55.133348 4.973210 -2.075929 42.613205 -2.384983 -11.822029 -1.673839 0.043393 -0.008430 -0.000001 0.000002 -0.000002 10.813385 -16.371291 -24.237594 75.693078 -4.284760 -6.759532 43.002434 -6.048869 14.295454 -6.219232 0.000000 0.000002 -0.000001 0.000001 -0.000001 
